# xmcd
# 
# Track frame offsets:
#     182
#     18297
#     44327
#     67677
#     89115
#     115575
#     134645
#     163357
#     185727
#     207540
# 
# Disc length: 3006
# 
# Revision: 3
# Processed by: cddbd v1.5.2PL0 Copyright (c) Steve Scherf et al.
# Submitted via: fre:ac v1.0.17
# 
DISCID=930bbc0a
DTITLE=Sarah Vaughan - Sarah Vaughan with Clifford Brown
DYEAR=1954
DGENRE=Jazz
TTITLE0=Lullaby Of Birdland
TTITLE1=September Song
TTITLE2=I'm Glad There Is You
TTITLE3=You're Not The Kind
TTITLE4=Jim
TTITLE5=He's My Guy
TTITLE6=April In Paris
TTITLE7=It's Crazy
TTITLE8=Embraceable You
TTITLE9=Lullaby Of Birdland (Alternate Take)
EXTD=YEAR: 1954
EXTT0=
EXTT1=
EXTT2=
EXTT3=
EXTT4=
EXTT5=
EXTT6=
EXTT7=
EXTT8=
EXTT9=
PLAYORDER=
